<svg xmlns="http://www.w3.org/2000/svg" xmlns:xlink="http://www.w3.org/1999/xlink" version="1.1" id="Layer_1" x="0px" y="0px" width="100px" height="100px" viewBox="0 0 100 100" enable-background="new 0 0 100 100" xml:space="preserve">
<path d="M39.625,6.019c0.018,0,0.037,0,0.055,0c1.637,0.008,6.371,0.01,12.162,0.01c11.584,0,27.393-0.01,31.074-0.01  c3.021,0,8.422,1.575,8.422,7.712c0,6.137,0,43.718,0,57.27c0,10.9-3.229,14.36-12.311,16.723c-1.184,0.308-3.07,0.567-5.232,0.567  c-6.479,0-15.436-2.336-15.436-12.706c0-9.875,9.971-11.113,14.973-11.113c1.672,0,2.791,0.14,2.791,0.14  c0.146,0.019,0.293,0.026,0.436,0.026c1.768,0,3.148-1.356,3.148-3.193V20.986c0-1.987-1.625-3.612-3.613-3.612H45.35  c-1.987,0-3.613,1.625-3.613,3.612c0,0,0,43.551,0,56.362c0,10.324-6.001,15.177-11.709,16.039c-1.26,0.189-3.444,0.479-5.951,0.479  c-6.464,0-15.063-1.93-15.409-12.481C8.337,71.32,18.475,70.058,23.583,70.058c1.712,0,2.86,0.141,2.86,0.141  c0.147,0.02,0.293,0.027,0.436,0.027c1.768,0,3.149-1.357,3.149-3.196v-48.55c0-1.987,0.49-5.162,1.089-7.056  C31.117,11.423,32.827,6.019,39.625,6.019 M39.625-0.001L39.625-0.001c-8.848,0-13.119,6.04-14.248,9.608  c-0.781,2.468-1.371,6.282-1.371,8.872v45.56c-0.138-0.002-0.279-0.002-0.423-0.002c-5.061,0-12.064,1.004-16.693,5.787  c-2.927,3.024-4.393,7.091-4.239,11.758c0.376,11.462,8.386,18.305,21.426,18.305c2.169,0,4.408-0.179,6.849-0.549  c4.55-0.687,8.701-3.005,11.69-6.53c3.364-3.968,5.142-9.313,5.142-15.46V23.394h25.929v35.06c-0.115-0.001-0.232-0.003-0.354-0.003  c-3.207,0-7.896,0.431-12.033,2.479c-5.777,2.86-8.959,8.064-8.959,14.654c0,6.669,2.895,12.126,8.148,15.366  c4.504,2.777,9.723,3.36,13.307,3.36c2.426,0,4.887-0.277,6.748-0.762c4.443-1.155,9.439-2.928,12.816-7.313  c2.766-3.593,3.998-8.293,3.998-15.235v-57.27c0-9.016-7.266-13.732-14.441-13.732c-1.328,0-4.234,0.002-7.949,0.003  c-6.584,0.002-15.717,0.007-23.125,0.007c-6.612,0-10.696-0.004-12.135-0.01H39.625L39.625-0.001L39.625-0.001z"/>
</svg>